<svg aria-hidden="true" viewBox="0 0 231 78" xmlns="http://www.w3.org/2000/svg"><path d="M43.69 51.46l14.88-25.59L88 77H0a8.39 8.39 0 01.55-2.29c9.29-16.1 18.61-32.18 28.22-48.77l14.92 25.52zm64.65 25.63c-14.166 0-25.65-11.484-25.65-25.65 0-14.166 11.484-25.65 25.65-25.65 14.166 0 25.65 11.484 25.65 25.65 0 14.166-11.484 25.65-25.65 25.65zm30.16-25.67h51.3c0 14.166-11.484 25.65-25.65 25.65-14.166 0-25.65-11.484-25.65-25.65zm66.8-25.64h.01c13.975.35 25.096 11.828 25.006 25.807-.09 13.98-11.358 25.312-25.336 25.483V51.29c-13.974-.35-25.096-11.823-25.009-25.802C180.058 11.509 191.322.175 205.3 0v25.78z" fill="#222" fill-rule="nonzero"/></svg>